<?xml version="1.0" encoding="UTF-8"?><svg id="Logo" xmlns="http://www.w3.org/2000/svg" viewBox="0 0 227.8 63.3"><defs><style>.cls-1{fill:#004a37;}</style></defs><g><path class="cls-1" d="M66.6,24.5l-1.4,4.2h-2.8l6.5-17.5h2.9l6.6,17.5h-2.9l-1.4-4.2h-7.3Zm6.5-2.3l-2.8-8.5h0l-2.9,8.5h5.8Z"/><path class="cls-1" d="M79.4,16.2h2.4v1.6h0c.7-1,2-1.9,4.1-1.9s4.2,1.3,4.2,4.2v8.7h-2.4v-8c0-1.7-.7-2.8-2.5-2.8s-3.4,1.2-3.4,3.1v7.7h-2.4v-12.5Z"/><path class="cls-1" d="M101,17.8v-6.5h2.4V28.7h-2.4v-1.5h0c-.7,.9-1.9,1.8-3.8,1.8-3.2,0-5.6-2.5-5.6-6.6s2.4-6.6,5.6-6.6,3.2,.9,3.8,1.9h0Zm0,4.7c0-2.8-1.3-4.6-3.5-4.6s-3.5,2.2-3.5,4.6,1.1,4.6,3.5,4.6,3.5-1.8,3.5-4.6Z"/><path class="cls-1" d="M105,22.5c0-3.9,2.4-6.6,6.2-6.6s5.9,2.5,5.9,6.4,0,.7,0,.9h-9.6c0,2.1,1.3,4,3.8,4s3-1.4,3.3-2.3h2.4c-.6,2.4-2.5,4.2-5.8,4.2s-6.2-2.8-6.2-6.6Zm2.5-1.2h7.1c0-2-1.3-3.4-3.5-3.4s-3.5,1.4-3.6,3.4Z"/><path class="cls-1" d="M128.6,25.2c0,2.4-1.9,3.9-5.1,3.9s-5.7-2-5.8-4.5h2.4c.1,1.4,1,2.6,3.3,2.6s2.7-.9,2.7-1.8c0-1.6-1.7-1.7-3.3-2.1-2.2-.5-4.7-1.2-4.7-3.8s1.7-3.6,4.8-3.6,5.1,1.8,5.2,4h-2.4c-.2-1-.7-2.1-2.8-2.1s-2.3,.6-2.3,1.6,1.4,1.4,3.2,1.8c2.3,.5,4.8,1.2,4.8,4Z"/><path class="cls-1" d="M156.8,11.2h7.3c3.3,0,5.8,1.5,5.8,5.2s-2.5,5.2-5.8,5.2h-4.6v7.1h-2.7V11.2Zm7.2,8.1c2,0,3.1-.9,3.1-2.9s-1-2.9-3.1-2.9h-4.5v5.8h4.5Z"/><path class="cls-1" d="M169.8,25.5c0-2.8,2.1-3.6,5.2-4.2,2-.4,3.2-.6,3.2-1.8s-.5-1.7-2.4-1.7-2.8,.7-3,2.4h-2.5c.1-2.4,1.7-4.3,5.5-4.3s4.6,1.1,4.6,4.3v5.7c0,.9,.1,1.4,.6,1.4s.1,0,.3,0v1.5c-.4,0-.8,.1-1.2,.1-1.2,0-1.8-.5-2-1.9h0c-.8,1.3-2.3,2.1-4.3,2.1s-4.1-1.4-4.1-3.6Zm8.4-1.6v-1.8c-.4,.4-1.5,.6-2.7,.9-2.2,.5-3.1,1.1-3.1,2.4s.6,1.8,2.1,1.8c2.2,0,3.8-1.1,3.8-3.3Z"/><path class="cls-1" d="M185.3,27.2v5.9h-2.4V16.2h2.4v1.5h0c.7-.9,1.9-1.8,3.8-1.8,3.2,0,5.6,2.5,5.6,6.6s-2.4,6.6-5.6,6.6-3.2-.9-3.8-1.9h0Zm0-4.7c0,2.8,1.3,4.6,3.5,4.6s3.5-2.2,3.5-4.6-1.1-4.6-3.5-4.6-3.5,1.8-3.5,4.6Z"/><path class="cls-1" d="M195.7,22.5c0-3.9,2.4-6.6,6.2-6.6s5.9,2.5,5.9,6.4,0,.7,0,.9h-9.6c0,2.1,1.3,4,3.8,4s3-1.4,3.3-2.3h2.4c-.6,2.4-2.5,4.2-5.8,4.2s-6.2-2.8-6.2-6.6Zm2.5-1.2h7.1c0-2-1.3-3.4-3.5-3.4s-3.5,1.4-3.6,3.4Z"/><path class="cls-1" d="M211.8,16.2v2.4h0c.6-1.6,1.7-2.7,3.4-2.7s.8,0,1.2,0v2.3c-.3,0-.5,0-.8,0-2.2,0-3.8,1.6-3.8,4v6.5h-2.4v-12.5h2.4Z"/><path class="cls-1" d="M68.2,36.5h-5.7v-2.3h14v2.3h-5.7v15.2h-2.7v-15.2Z"/><path class="cls-1" d="M77.3,39.2v2.4h0c.6-1.6,1.7-2.7,3.4-2.7s.8,0,1.2,0v2.3c-.3,0-.5,0-.8,0-2.2,0-3.8,1.6-3.8,4v6.5h-2.4v-12.5h2.4Z"/><path class="cls-1" d="M81.7,48.5c0-2.8,2.1-3.6,5.2-4.2,2-.4,3.2-.6,3.2-1.8s-.5-1.7-2.4-1.7-2.8,.7-3,2.4h-2.5c.1-2.4,1.7-4.3,5.5-4.3s4.6,1.1,4.6,4.3v5.7c0,.9,.1,1.4,.6,1.4s.1,0,.3,0v1.5c-.4,0-.8,.1-1.2,.1-1.2,0-1.8-.5-2-1.9h0c-.8,1.3-2.3,2.1-4.3,2.1s-4.1-1.4-4.1-3.6Zm8.4-1.6v-1.8c-.4,.4-1.5,.6-2.7,.9-2.2,.5-3.1,1.1-3.1,2.4s.6,1.8,2.1,1.8c2.2,0,3.8-1.1,3.8-3.3Z"/><path class="cls-1" d="M103.6,40.7v-6.5h2.4v17.5h-2.4v-1.5h0c-.7,.9-1.9,1.8-3.8,1.8-3.2,0-5.6-2.5-5.6-6.6s2.4-6.6,5.6-6.6,3.2,.9,3.8,1.9h0Zm0,4.7c0-2.8-1.3-4.6-3.5-4.6s-3.5,2.2-3.5,4.6,1.1,4.6,3.5,4.6,3.5-1.8,3.5-4.6Z"/><path class="cls-1" d="M110.7,34.4v2.6h-2.7v-2.6h2.7Zm-.1,4.8v12.5h-2.4v-12.5h2.4Z"/><path class="cls-1" d="M112.8,39.2h2.4v1.6h0c.7-1,2-1.9,4.1-1.9s4.2,1.3,4.2,4.2v8.7h-2.4v-8c0-1.7-.7-2.8-2.5-2.8s-3.4,1.2-3.4,3.1v7.7h-2.4v-12.5Z"/><path class="cls-1" d="M134.3,49.2h0c-.7,1-1.8,1.9-3.8,1.9-3.1,0-5.5-2.1-5.5-6.1s2.4-6.1,5.5-6.1,3.2,1,3.8,1.8h0v-1.5h2.4v11.5c0,3.8-2.3,5.5-5.9,5.5s-5.4-1.7-5.6-4h2.5c.2,1.1,1.1,2,3.1,2s3.5-1,3.5-3.4v-1.7Zm-6.9-4.2c0,2.4,1.1,4.1,3.5,4.1s3.4-1.4,3.4-4.1-1.3-4.1-3.4-4.1-3.5,1.8-3.5,4.1Z"/><path class="cls-1" d="M159.5,34.2v17.5h-2.7v-17.5h2.7Z"/><path class="cls-1" d="M161.8,39.2h2.4v1.6h0c.7-1,2-1.9,4.1-1.9s4.2,1.3,4.2,4.2v8.7h-2.4v-8c0-1.7-.7-2.8-2.5-2.8s-3.4,1.2-3.4,3.1v7.7h-2.4v-12.5Z"/><path class="cls-1" d="M180.1,40.8c-2.6,0-3.6,2.3-3.6,4.6s1,4.6,3.6,4.6,3-1.6,3.1-3h2.5c-.2,2.9-2.4,5-5.6,5s-6.2-2.7-6.2-6.6,2.4-6.6,6.1-6.6,5.3,2.1,5.6,4.9h-2.5c0-1.3-.8-2.9-3.1-2.9Z"/><path class="cls-1" d="M188.7,49.1v2.7h-2.7v-2.7h2.7Z"/></g><g><path class="cls-1" d="M38.9,23h-15.1c-.5,0-.9-.2-1.2-.6l-6.8-10.9h24.4v10.1c0,.8-.6,1.4-1.4,1.4Z"/><path class="cls-1" d="M23,24.4v15.1c0,.5-.2,.9-.6,1.2l-10.9,6.8V23h10.1c.8,0,1.4,.6,1.4,1.4Z"/><path class="cls-1" d="M24.4,40.3h15.1c.5,0,.9,.2,1.2,.6l6.8,10.9H23v-10.1c0-.8,.6-1.4,1.4-1.4Z"/><path class="cls-1" d="M40.3,38.9v-15.1c0-.5,.2-.9,.6-1.2l10.9-6.8v24.4h-10.1c-.8,0-1.4-.6-1.4-1.4Z"/></g></svg>